 <svg  version="1.0" xmlns="http://www.w3.org/2000/svg"  width="900.000000pt" height="501.000000pt" viewBox="0 0 900.000000 501.000000"  preserveAspectRatio="xMidYMid meet">  <g transform="translate(0.000000,501.000000) scale(0.100000,-0.100000)" fill="#2cbab8" stroke="none"> <path d="M4395 4364 c-16 -2 -72 -9 -123 -15 -282 -32 -563 -143 -832 -327 -73 -49 -245 -207 -301 -275 -28 -34 -58 -71 -68 -82 -76 -93 -173 -263 -251 -440 -35 -80 -92 -295 -112 -420 -18 -115 -19 -440 -2 -512 8 -32 14 -75 14 -96 0 -21 5 -47 11 -58 6 -11 14 -41 19 -67 4 -26 14 -63 20 -82 7 -19 18 -51 25 -70 29 -79 81 -198 107 -243 15 -26 28 -50 28 -53 0 -3 25 -44 56 -91 150 -227 345 -415 579 -560 40 -24 283 -143 294 -143 5 0 25 -6 43 -14 35 -15 103 -35 203 -60 226 -56 548 -56 795 0 484 110 892 402 1157 829 7 11 15 27 20 35 4 8 18 35 33 60 24 43 77 163 105 240 7 19 18 51 25 70 7 19 15 53 19 75 4 22 12 56 19 75 40 125 51 505 19 675 -19 103 -41 203 -49 225 -3 8 -16 47 -28 85 -12 39 -27 84 -35 100 -26 58 -45 103 -45 108 0 3 -20 40 -45 81 -25 42 -45 81 -45 85 0 5 -3 11 -7 13 -5 2 -29 35 -55 73 -25 39 -56 81 -68 95 -12 14 -34 41 -49 60 -44 59 -175 185 -257 247 -70 54 -120 90 -134 96 -8 4 -28 16 -45 27 -90 59 -313 154 -455 194 -172 48 -443 76 -585 60z m377 -130 c-2 -16 -8 -30 -13 -32 -5 -2 -9 -7 -9 -12 0 -4 22 -1 49 8 47 15 54 14 133 -7 155 -42 360 -133 442 -196 26 -19 51 -35 56 -35 6 0 10 -4 10 -9 0 -5 17 -20 38 -33 42 -26 81 -67 82 -85 0 -7 6 -13 14 -13 10 0 14 -14 14 -49 l1 -48 -95 0 c-52 1 -94 5 -94 9 0 4 30 8 66 8 36 0 63 3 61 8 -3 4 -76 6 -164 5 -197 -2 -183 0 -183 -18 0 -8 -5 -15 -10 -15 -6 0 -10 7 -8 16 2 9 -5 21 -14 28 -14 8 -21 7 -35 -7 -11 -10 -13 -17 -5 -17 7 0 12 -4 12 -8 0 -4 -25 -9 -55 -10 -47 -1 -55 1 -53 16 5 26 -42 25 -52 -2 l-9 -21 0 21 c-1 27 -41 26 -52 -2 -7 -18 -8 -18 -8 2 -1 18 -6 20 -46 17 -34 -3 -47 -1 -51 11 -8 20 -30 21 -38 1 -4 -11 -10 -13 -23 -6 -63 34 -129 37 -102 5 8 -10 16 -11 31 -3 28 15 35 3 13 -21 -17 -19 -19 -19 -37 -3 -22 20 -56 24 -80 10 -11 -8 -24 -8 -40 0 -13 6 -50 9 -83 7 -52 -4 -58 -2 -42 10 9 7 17 23 17 35 0 11 5 21 10 21 6 0 10 -10 10 -22 0 -17 3 -19 9 -9 5 7 6 22 4 32 -3 11 7 33 26 56 17 21 31 41 31 45 0 11 38 48 48 48 16 0 44 39 37 50 -6 10 -154 -119 -258 -225 -53 -54 -169 -145 -184 -145 -7 0 -13 5 -13 11 0 17 441 452 574 567 56 47 73 49 68 6z m-270 10 c28 -5 41 -14 52 -35 15 -31 10 -45 -11 -27 -18 15 -29 2 -14 -16 9 -11 9 -16 0 -21 -6 -4 -15 -2 -19 5 -5 8 -10 9 -14 2 -3 -6 -1 -12 6 -14 7 -3 8 -9 3 -18 -6 -10 -10 -10 -20 4 -11 14 -14 14 -24 2 -9 -11 -8 -15 4 -20 9 -3 13 -11 10 -16 -5 -8 -11 -8 -20 0 -10 9 -20 7 -39 -5 -14 -10 -26 -21 -26 -26 0 -5 -7 -9 -15 -9 -8 0 -15 -4 -15 -10 0 -11 -36 -50 -46 -50 -4 0 -36 -27 -71 -61 -36 -33 -76 -64 -88 -69 -13 -5 -25 -19 -27 -32 -2 -18 -9 -22 -27 -20 -14 1 -28 -3 -32 -10 -5 -7 -16 -13 -26 -13 -10 -1 -17 -7 -15 -15 4 -17 -16 -30 -50 -30 -18 0 -28 5 -28 15 0 20 -36 19 -44 0 -4 -10 2 -19 16 -24 13 -4 -24 -8 -90 -8 -62 0 -112 4 -112 8 0 5 39 9 88 9 48 0 82 4 75 8 -6 4 -64 7 -130 7 -105 -1 -118 -3 -115 -18 4 -24 -29 -22 -51 4 -20 23 -44 20 -39 -5 2 -12 -5 -16 -33 -16 l-35 0 21 21 c27 27 19 45 -19 41 -24 -2 -31 1 -31 15 1 10 -2 27 -6 38 -5 16 7 31 62 76 65 53 159 119 169 119 2 0 21 10 42 23 185 116 611 219 784 191z m858 -513 c0 -5 -33 -8 -74 -7 -67 1 -75 -1 -80 -19 -4 -16 -8 -17 -18 -7 -11 11 -9 16 6 28 22 16 166 20 166 5z m30 -8 c0 -5 -5 -15 -10 -23 -8 -12 -10 -11 -10 8 0 12 5 22 10 22 6 0 10 -3 10 -7z m-607 -197 c83 -12 108 -20 165 -54 130 -77 375 -354 435 -492 11 -25 27 -56 37 -70 40 -58 55 -138 55 -290 -1 -153 -12 -219 -62 -370 -65 -196 -164 -323 -238 -304 -18 4 -27 2 -31 -10 -7 -19 -45 -21 -62 -4 -9 9 -15 9 -24 0 -9 -9 -14 -8 -22 3 -6 8 -27 15 -46 15 -92 0 -159 -6 -172 -18 -12 -10 -18 -9 -28 3 -14 17 -62 20 -91 4 -14 -7 -24 -7 -32 0 -12 9 -72 2 -94 -12 -5 -3 -17 3 -26 14 -21 24 -40 25 -32 0 5 -17 1 -19 -46 -16 -37 2 -56 -2 -68 -14 -17 -17 -67 -17 -88 1 -8 6 -30 5 -66 -6 -32 -9 -68 -13 -86 -10 -25 5 -37 2 -57 -17 l-25 -23 -6 22 c-10 40 -72 16 -74 -29 -1 -21 -2 -21 -6 -4 -3 11 -10 23 -15 26 -17 11 -91 -2 -110 -19 -15 -12 -22 -13 -50 -1 -124 50 -187 172 -274 534 -34 143 -42 181 -54 264 -6 41 -13 77 -15 81 -3 5 0 32 5 61 19 101 178 331 397 574 134 149 159 163 310 175 141 11 471 3 596 -14z m442 -11 c38 -8 104 -15 145 -15 41 -1 95 -5 120 -11 25 -6 93 -14 152 -19 59 -4 112 -12 119 -16 7 -4 54 -11 105 -15 116 -8 222 -51 152 -61 -13 -2 -50 0 -83 4 -33 4 -96 12 -140 17 -44 5 -114 14 -155 20 -99 14 -242 30 -360 41 -96 9 -220 37 -220 50 0 25 63 27 165 5z m-2373 -1228 c35 -23 92 -60 128 -82 36 -21 67 -42 70 -45 3 -3 23 -17 45 -30 22 -13 46 -30 53 -37 7 -7 18 -13 23 -13 5 0 15 -5 22 -10 7 -6 21 -17 32 -25 20 -14 20 -14 -2 -15 -12 0 -25 5 -28 11 -4 5 -17 15 -28 20 -12 5 -35 18 -52 29 -16 11 -39 24 -50 30 -11 6 -33 19 -50 30 -16 11 -39 24 -50 30 -26 13 -59 33 -65 41 -3 3 -23 16 -45 29 -66 39 -105 80 -75 80 5 0 38 -19 72 -43z m428 -277 c0 -13 -11 -13 -30 0 -12 8 -11 10 8 10 12 0 22 -4 22 -10z m438 -242 c2 -4 12 -8 22 -8 9 0 23 -6 29 -14 7 -8 23 -17 36 -20 14 -4 25 -11 25 -16 0 -6 9 -10 19 -10 11 0 26 -7 35 -15 8 -8 21 -15 29 -15 8 0 20 -7 27 -15 7 -8 20 -15 30 -15 10 0 23 -7 30 -15 7 -8 20 -15 30 -15 10 0 23 -7 30 -15 7 -8 20 -15 29 -15 10 0 26 -7 37 -15 10 -8 26 -15 35 -15 9 0 22 -7 29 -15 7 -8 21 -15 30 -15 10 0 31 -6 47 -14 15 -8 53 -26 83 -40 42 -20 48 -26 29 -26 -32 0 -73 13 -168 53 -127 53 -538 265 -590 303 -1 2 0 7 3 13 7 10 88 -25 94 -41z m1642 37 c0 -10 -54 -57 -95 -83 -62 -40 -393 -202 -411 -202 -7 0 -94 -38 -116 -50 -10 -6 -23 -10 -29 -10 -6 0 -25 -6 -42 -14 -41 -18 -165 -66 -197 -77 -14 -4 -50 -17 -80 -29 -30 -12 -66 -25 -80 -30 -14 -5 -70 -25 -125 -45 -55 -20 -113 -40 -130 -45 -16 -4 -46 -14 -65 -21 -19 -6 -51 -17 -70 -24 -19 -7 -51 -18 -70 -24 -19 -7 -49 -16 -65 -20 -17 -4 -40 -13 -52 -19 -12 -7 -32 -12 -45 -12 -13 0 -32 -7 -42 -15 -22 -17 -72 -20 -81 -6 -3 6 11 13 31 17 21 4 49 13 63 20 14 8 38 14 54 14 15 0 27 4 27 9 0 5 18 12 41 16 22 4 53 13 67 21 15 8 37 14 50 14 12 0 22 4 22 9 0 5 16 12 35 15 19 4 47 13 62 21 15 8 38 15 50 15 12 0 24 4 28 9 3 5 19 12 36 16 17 4 42 13 57 21 15 8 37 14 50 14 12 0 22 4 22 10 0 5 18 13 40 16 22 4 40 10 40 15 0 4 16 11 36 15 20 4 60 20 90 35 29 16 60 29 68 29 8 0 27 6 43 14 15 8 48 22 73 31 25 10 57 23 72 31 14 8 35 14 46 14 11 0 25 7 32 15 7 8 23 15 35 15 12 0 28 7 35 15 7 8 23 15 35 15 12 0 28 7 35 15 7 8 20 15 29 15 9 0 25 7 35 15 11 8 27 15 37 15 9 0 22 7 29 15 7 8 20 15 30 15 10 0 23 7 30 15 7 8 21 15 31 15 11 0 19 4 19 9 0 5 12 14 28 20 15 6 41 20 57 31 17 11 38 23 48 26 9 4 17 10 17 15 0 5 7 9 15 9 8 0 15 -2 15 -5z"/> <path d="M4595 4049 c-10 -15 3 -25 16 -12 7 7 7 13 1 17 -6 3 -14 1 -17 -5z"/> <path d="M6190 3615 c0 -8 -6 -12 -14 -9 -8 3 -22 -4 -33 -15 -12 -13 -23 -17 -33 -11 -19 12 -50 -6 -50 -30 0 -11 4 -20 10 -20 5 0 12 -11 16 -25 3 -13 12 -29 20 -36 8 -6 14 -19 14 -29 0 -10 7 -23 15 -30 8 -7 15 -21 15 -31 0 -11 4 -19 9 -19 5 0 13 -10 16 -22 4 -13 12 -36 20 -53 34 -76 45 -104 45 -118 0 -9 4 -18 9 -21 5 -3 12 -23 16 -43 4 -21 10 -42 15 -48 9 -11 25 -83 45 -202 8 -46 16 -87 20 -92 11 -19 7 -455 -5 -486 -6 -16 -16 -59 -20 -95 -10 -72 -32 -170 -41 -185 -4 -5 -10 -25 -14 -43 -4 -18 -13 -45 -21 -60 -8 -15 -14 -32 -14 -39 0 -6 -6 -24 -14 -40 -8 -15 -30 -59 -48 -98 -211 -444 -637 -815 -1103 -959 -217 -67 -311 -80 -560 -81 -248 0 -341 14 -560 81 -330 102 -662 326 -870 589 -22 28 -43 52 -46 55 -3 3 -35 48 -71 101 -74 111 -157 273 -201 394 -8 22 -20 56 -27 75 -7 19 -15 51 -17 70 -3 19 -9 40 -14 46 -5 7 -14 40 -19 75 -5 35 -13 84 -19 109 -6 25 -11 144 -11 265 -1 218 -10 297 -26 227 -7 -33 -7 -33 -53 -28 -34 4 -41 2 -28 -5 22 -13 22 -26 -2 -34 -26 -8 -51 4 -51 25 0 11 -4 21 -9 24 -28 17 -25 -436 4 -589 27 -148 29 -182 10 -201 -18 -19 -17 -65 3 -72 8 -2 12 9 12 37 0 23 4 41 9 41 24 0 29 -85 6 -94 -19 -7 -19 -50 0 -70 8 -8 15 -28 15 -45 0 -16 4 -32 9 -36 5 -3 12 -18 16 -34 3 -16 13 -35 21 -42 8 -6 14 -19 14 -29 0 -10 7 -23 15 -30 8 -7 15 -19 15 -26 0 -8 12 -33 27 -57 38 -58 51 -79 60 -97 4 -8 18 -31 32 -51 14 -20 33 -47 41 -59 8 -12 20 -28 27 -35 6 -7 23 -28 36 -48 40 -59 189 -216 247 -259 30 -23 61 -50 68 -59 14 -20 175 -132 227 -159 11 -6 34 -19 50 -30 58 -37 72 -45 121 -69 147 -73 248 -111 290 -111 13 0 25 -4 29 -9 3 -5 30 -15 61 -22 30 -7 57 -16 60 -21 3 -4 31 -8 62 -8 36 0 66 -6 80 -16 18 -13 68 -15 309 -18 158 -1 306 1 328 6 22 4 69 13 105 19 36 6 77 17 92 25 14 8 38 14 53 14 14 0 36 5 47 11 11 6 38 13 59 15 21 3 51 11 66 19 15 8 33 15 39 15 6 0 17 7 24 15 7 8 20 15 30 15 20 0 78 26 165 75 33 18 80 44 105 56 25 12 53 29 62 38 32 30 47 41 56 41 10 0 104 67 162 116 68 58 239 234 286 296 26 35 54 67 61 71 7 4 13 13 13 18 0 6 24 48 53 92 30 45 60 96 69 112 8 17 36 70 61 118 26 49 47 96 47 106 0 9 6 25 14 36 17 26 56 139 56 164 0 11 5 23 10 26 6 3 10 25 10 48 0 23 7 51 15 61 8 11 15 37 15 57 0 21 7 64 15 96 18 67 19 149 4 224 -6 30 -15 90 -19 134 -5 44 -14 107 -19 140 -6 33 -15 89 -20 125 -16 101 -35 194 -44 207 -4 6 -11 31 -16 55 -13 60 -42 139 -78 210 -7 14 -13 33 -13 41 0 8 -7 20 -15 27 -8 7 -15 20 -15 30 0 10 -7 23 -15 30 -8 7 -15 18 -15 25 0 15 -60 111 -84 136 -9 9 -16 21 -16 27 0 7 -4 12 -10 12 -5 0 -10 -7 -10 -15z m370 -1341 c0 -75 -13 -98 -25 -44 -8 38 4 132 16 124 5 -3 9 -39 9 -80z m-40 -208 c-7 -7 -10 4 -9 30 1 39 1 39 10 9 5 -18 5 -33 -1 -39z m-3950 -247 c0 -19 -5 -29 -15 -29 -15 0 -22 50 -9 63 12 12 24 -4 24 -34z m30 -81 c0 -10 -4 -18 -9 -18 -16 0 -23 19 -16 41 6 17 9 19 16 8 5 -8 9 -22 9 -31z m30 -63 c0 -8 -4 -17 -10 -20 -6 -4 -10 5 -10 20 0 15 4 24 10 20 6 -3 10 -12 10 -20z"/> <path d="M6030 3601 c0 -20 17 -37 27 -28 7 8 -7 47 -18 47 -5 0 -9 -9 -9 -19z"/> <path d="M6572 2770 c-1 -30 -5 -66 -8 -80 -5 -19 -4 -22 5 -14 8 7 11 35 8 80 -3 65 -3 66 -5 14z"/> <path d="M2423 2174 c-3 -8 -1 -29 5 -47 10 -32 10 -31 11 16 1 48 -5 60 -16 31z"/> <path d="M2456 2044 c-3 -8 -3 -27 0 -41 8 -31 24 -12 24 30 0 29 -14 36 -24 11z"/> </g> </svg> 